<svg width="375" height="60" viewBox="0 0 375 60" fill="none" xmlns="http://www.w3.org/2000/svg">
<g filter="url(#filter0_d_3_593)">
<rect width="375" height="54" fill="white"/>
<path d="M37.7902 35.8767L39.6878 34.2827L36.7802 30.8214L34.8826 32.4156L37.7902 35.8767Z" fill="url(#paint0_linear_3_593)"/>
<path d="M45.5098 43.054C46.4626 42.2535 46.5567 40.8205 45.7164 39.9026L39.2538 33.1938L36.7939 35.2602L42.3702 42.7137C43.1291 43.6997 44.557 43.8545 45.5098 43.054Z" fill="url(#paint1_linear_3_593)"/>
<path d="M41.3204 25.0093C40.8855 27.9898 39.4008 30.8269 36.9186 32.9121C31.5437 37.427 23.4983 36.7273 18.9835 31.3525C16.7966 28.7489 15.7544 25.4493 16.0489 22.0618C16.344 18.6683 17.9398 15.604 20.5429 13.4173C23.1463 11.23 26.4459 10.1877 29.8333 10.4823C33.2209 10.7771 36.2909 12.3732 38.478 14.9767C40.9076 17.8692 41.8272 21.5361 41.3204 25.0093ZM18.7336 21.6921C18.7049 21.8893 18.6817 22.0886 18.6643 22.2892C18.4304 24.9785 19.2577 27.5972 20.9938 29.6641C22.7298 31.7308 25.1667 32.9978 27.8556 33.2315C30.5446 33.4654 33.1636 32.6383 35.2304 30.9019C39.4965 27.3181 40.0512 20.9316 36.468 16.6653C34.732 14.5986 32.295 13.3313 29.6059 13.0976C26.9169 12.8638 24.2981 13.6913 22.2315 15.4275C20.3189 17.0341 19.0912 19.2411 18.7336 21.6921Z" fill="#4356D6"/>
<path d="M23.6267 21.7219V30.8927C24.8962 31.6388 26.3715 32.0975 27.9439 32.2154C28.0929 32.2265 28.2416 32.2345 28.3899 32.2394V21.7219H23.6267Z" fill="url(#paint2_linear_3_593)"/>
<path d="M29.1882 18.5195V32.2347C30.9012 32.1633 32.5422 31.6771 33.9515 30.8201V18.5195H29.1882Z" fill="#4356D6"/>
<path d="M34.5723 30.1182C38.4063 26.8974 38.9049 21.1577 35.6845 17.3234C35.3342 16.9062 34.9504 16.5273 34.541 16.185V30.1432C34.5513 30.1347 34.5621 30.127 34.5723 30.1182Z" fill="url(#paint3_linear_3_593)"/>
<path d="M19.7092 24.2001C19.9071 25.958 20.6133 27.6203 21.7773 29.0058C22.1259 29.4208 22.5075 29.7978 22.9145 30.1386V24.2001H19.7092Z" fill="url(#paint4_linear_3_593)"/>
<path d="M73.467 34.7295V38.5H61.656V34.7295H73.467ZM63.219 15.0391V38.5H58.385V15.0391H63.219ZM75.2073 29.96V29.6216C75.2073 28.3433 75.3899 27.167 75.7551 26.0928C76.1204 25.0078 76.6521 24.0679 77.3503 23.2729C78.0486 22.478 78.908 21.8604 79.9285 21.4199C80.949 20.9688 82.1199 20.7432 83.4412 20.7432C84.7625 20.7432 85.9387 20.9688 86.97 21.4199C88.0012 21.8604 88.866 22.478 89.5642 23.2729C90.2732 24.0679 90.8103 25.0078 91.1755 26.0928C91.5408 27.167 91.7234 28.3433 91.7234 29.6216V29.96C91.7234 31.2275 91.5408 32.4038 91.1755 33.4888C90.8103 34.563 90.2732 35.5029 89.5642 36.3086C88.866 37.1035 88.0066 37.7212 86.9861 38.1616C85.9656 38.6021 84.7947 38.8223 83.4734 38.8223C82.1521 38.8223 80.9758 38.6021 79.9446 38.1616C78.9241 37.7212 78.0593 37.1035 77.3503 36.3086C76.6521 35.5029 76.1204 34.563 75.7551 33.4888C75.3899 32.4038 75.2073 31.2275 75.2073 29.96ZM79.8479 29.6216V29.96C79.8479 30.6904 79.9124 31.3726 80.0413 32.0063C80.1702 32.6401 80.3743 33.1987 80.6536 33.6821C80.9436 34.1548 81.3196 34.5254 81.7815 34.7939C82.2434 35.0625 82.8074 35.1968 83.4734 35.1968C84.1179 35.1968 84.6711 35.0625 85.1331 34.7939C85.595 34.5254 85.9656 34.1548 86.2449 33.6821C86.5242 33.1987 86.7283 32.6401 86.8572 32.0063C86.9968 31.3726 87.0667 30.6904 87.0667 29.96V29.6216C87.0667 28.9126 86.9968 28.2466 86.8572 27.6235C86.7283 26.9897 86.5188 26.4312 86.2288 25.9478C85.9495 25.4536 85.5789 25.0669 85.1169 24.7876C84.655 24.5083 84.0964 24.3687 83.4412 24.3687C82.7859 24.3687 82.2273 24.5083 81.7654 24.7876C81.3142 25.0669 80.9436 25.4536 80.6536 25.9478C80.3743 26.4312 80.1702 26.9897 80.0413 27.6235C79.9124 28.2466 79.8479 28.9126 79.8479 29.6216ZM105.613 21.0654H109.819V37.9199C109.819 39.5098 109.464 40.8579 108.755 41.9644C108.057 43.0815 107.079 43.9248 105.823 44.4941C104.566 45.0742 103.105 45.3643 101.44 45.3643C100.709 45.3643 99.9358 45.2676 99.1194 45.0742C98.3137 44.8809 97.5403 44.5801 96.7991 44.1719C96.0686 43.7637 95.4563 43.248 94.9622 42.625L97.0085 39.8857C97.5457 40.5088 98.1687 40.9922 98.8777 41.3359C99.5867 41.6904 100.371 41.8677 101.23 41.8677C102.068 41.8677 102.777 41.7119 103.357 41.4004C103.937 41.0996 104.383 40.6538 104.695 40.063C105.006 39.4829 105.162 38.7793 105.162 37.9521V25.0938L105.613 21.0654ZM93.8826 29.9922V29.6538C93.8826 28.3218 94.0437 27.1133 94.366 26.0283C94.699 24.9326 95.1663 23.9927 95.7678 23.2085C96.3801 22.4243 97.1213 21.8174 97.9915 21.3877C98.8616 20.958 99.8445 20.7432 100.94 20.7432C102.1 20.7432 103.073 20.958 103.857 21.3877C104.641 21.8174 105.285 22.4297 105.79 23.2246C106.295 24.0088 106.687 24.938 106.967 26.0122C107.257 27.0757 107.482 28.2412 107.643 29.5088V30.25C107.482 31.4639 107.24 32.5918 106.918 33.6338C106.596 34.6758 106.172 35.5889 105.645 36.373C105.119 37.1465 104.464 37.748 103.679 38.1777C102.906 38.6074 101.982 38.8223 100.908 38.8223C99.8337 38.8223 98.8616 38.6021 97.9915 38.1616C97.1321 37.7212 96.3962 37.1035 95.7839 36.3086C95.1716 35.5137 94.699 34.5791 94.366 33.5049C94.0437 32.4307 93.8826 31.2598 93.8826 29.9922ZM98.5232 29.6538V29.9922C98.5232 30.7119 98.593 31.3833 98.7327 32.0063C98.8723 32.6294 99.0872 33.1826 99.3772 33.666C99.678 34.1387 100.049 34.5093 100.489 34.7778C100.94 35.0356 101.472 35.1646 102.084 35.1646C102.933 35.1646 103.626 34.9873 104.163 34.6328C104.7 34.2676 105.103 33.7681 105.371 33.1343C105.64 32.5005 105.796 31.77 105.839 30.9429V28.832C105.817 28.1553 105.726 27.5483 105.565 27.0112C105.404 26.4634 105.178 25.9961 104.888 25.6094C104.598 25.2227 104.222 24.9219 103.76 24.707C103.298 24.4922 102.75 24.3848 102.116 24.3848C101.504 24.3848 100.972 24.5244 100.521 24.8037C100.081 25.0723 99.7102 25.4429 99.4094 25.9155C99.1194 26.3882 98.8992 26.9468 98.7488 27.5913C98.5984 28.2251 98.5232 28.9126 98.5232 29.6538ZM112.687 29.96V29.6216C112.687 28.3433 112.869 27.167 113.235 26.0928C113.6 25.0078 114.132 24.0679 114.83 23.2729C115.528 22.478 116.387 21.8604 117.408 21.4199C118.428 20.9688 119.599 20.7432 120.921 20.7432C122.242 20.7432 123.418 20.9688 124.449 21.4199C125.481 21.8604 126.345 22.478 127.044 23.2729C127.753 24.0679 128.29 25.0078 128.655 26.0928C129.02 27.167 129.203 28.3433 129.203 29.6216V29.96C129.203 31.2275 129.02 32.4038 128.655 33.4888C128.29 34.563 127.753 35.5029 127.044 36.3086C126.345 37.1035 125.486 37.7212 124.466 38.1616C123.445 38.6021 122.274 38.8223 120.953 38.8223C119.632 38.8223 118.455 38.6021 117.424 38.1616C116.404 37.7212 115.539 37.1035 114.83 36.3086C114.132 35.5029 113.6 34.563 113.235 33.4888C112.869 32.4038 112.687 31.2275 112.687 29.96ZM117.327 29.6216V29.96C117.327 30.6904 117.392 31.3726 117.521 32.0063C117.65 32.6401 117.854 33.1987 118.133 33.6821C118.423 34.1548 118.799 34.5254 119.261 34.7939C119.723 35.0625 120.287 35.1968 120.953 35.1968C121.597 35.1968 122.151 35.0625 122.613 34.7939C123.074 34.5254 123.445 34.1548 123.724 33.6821C124.004 33.1987 124.208 32.6401 124.337 32.0063C124.476 31.3726 124.546 30.6904 124.546 29.96V29.6216C124.546 28.9126 124.476 28.2466 124.337 27.6235C124.208 26.9897 123.998 26.4312 123.708 25.9478C123.429 25.4536 123.058 25.0669 122.596 24.7876C122.135 24.5083 121.576 24.3687 120.921 24.3687C120.265 24.3687 119.707 24.5083 119.245 24.7876C118.794 25.0669 118.423 25.4536 118.133 25.9478C117.854 26.4312 117.65 26.9897 117.521 27.6235C117.392 28.2466 117.327 28.9126 117.327 29.6216Z" fill="black"/>
<path d="M338 33H356V31H338V33ZM338 28H356V26H338V28ZM338 21V23H356V21H338Z" fill="black"/>
</g>
<defs>
<filter id="filter0_d_3_593" x="-6" y="-6" width="387" height="66" filterUnits="userSpaceOnUse" color-interpolation-filters="sRGB">
<feFlood flood-opacity="0" result="BackgroundImageFix"/>
<feColorMatrix in="SourceAlpha" type="matrix" values="0 0 0 0 0 0 0 0 0 0 0 0 0 0 0 0 0 0 127 0" result="hardAlpha"/>
<feOffset/>
<feGaussianBlur stdDeviation="3"/>
<feComposite in2="hardAlpha" operator="out"/>
<feColorMatrix type="matrix" values="0 0 0 0 0 0 0 0 0 0 0 0 0 0 0 0 0 0 0.11 0"/>
<feBlend mode="normal" in2="BackgroundImageFix" result="effect1_dropShadow_3_593"/>
<feBlend mode="normal" in="SourceGraphic" in2="effect1_dropShadow_3_593" result="shape"/>
</filter>
<linearGradient id="paint0_linear_3_593" x1="37.489" y1="22.5151" x2="37.1787" y2="39.0156" gradientUnits="userSpaceOnUse">
<stop stop-color="#2945A8"/>
<stop offset="0.1945" stop-color="#25409B"/>
<stop offset="0.5538" stop-color="#1B3179"/>
<stop offset="0.9534" stop-color="#0D1E4C"/>
</linearGradient>
<linearGradient id="paint1_linear_3_593" x1="41.5536" y1="38.4224" x2="38.2535" y2="50.6416" gradientUnits="userSpaceOnUse">
<stop stop-color="#2945A8"/>
<stop offset="0.1945" stop-color="#25409B"/>
<stop offset="0.5538" stop-color="#1B3179"/>
<stop offset="0.9534" stop-color="#0D1E4C"/>
</linearGradient>
<linearGradient id="paint2_linear_3_593" x1="25.5423" y1="15.3559" x2="26.7593" y2="43.955" gradientUnits="userSpaceOnUse">
<stop stop-color="#2945A8"/>
<stop offset="0.1945" stop-color="#25409B"/>
<stop offset="0.5538" stop-color="#1B3179"/>
<stop offset="0.9534" stop-color="#0D1E4C"/>
</linearGradient>
<linearGradient id="paint3_linear_3_593" x1="35.5577" y1="12.0543" x2="36.9655" y2="45.136" gradientUnits="userSpaceOnUse">
<stop stop-color="#2945A8"/>
<stop offset="0.1945" stop-color="#25409B"/>
<stop offset="0.5538" stop-color="#1B3179"/>
<stop offset="0.9534" stop-color="#0D1E4C"/>
</linearGradient>
<linearGradient id="paint4_linear_3_593" x1="20.895" y1="14.4032" x2="22.1848" y2="44.714" gradientUnits="userSpaceOnUse">
<stop stop-color="#2945A8"/>
<stop offset="0.1945" stop-color="#25409B"/>
<stop offset="0.5538" stop-color="#1B3179"/>
<stop offset="0.9534" stop-color="#0D1E4C"/>
</linearGradient>
</defs>
</svg>
