<svg width="169" height="46" viewBox="0 0 169 46" fill="none" xmlns="http://www.w3.org/2000/svg">
<rect x="0.5" y="0.5" width="168" height="45" rx="7.5" fill="#4356D6"/>
<rect x="0.5" y="0.5" width="168" height="45" rx="7.5" stroke="#4356D6"/>
<path d="M38.4941 26.6938L38.9881 26.2031L37.8409 25.0504L37.349 25.5412L38.4941 26.6938ZM40.6445 25.9973L42.7148 27.1228L43.4894 25.695L41.4202 24.5705L40.6445 25.9973ZM43.1124 29.3588L41.574 30.8896L42.7191 32.0412L44.2574 30.5115L43.1124 29.3588ZM40.6359 31.3814C39.065 31.5288 35.0025 31.3977 30.602 27.0232L29.4559 28.1748C34.2572 32.949 38.8278 33.183 40.7875 32.9999L40.6359 31.3814ZM30.602 27.0232C26.4084 22.8523 25.7129 19.3456 25.6263 17.8235L24.0034 17.9156C24.1118 19.8309 24.973 23.7179 29.4559 28.1748L30.602 27.0232ZM32.0916 20.3282L32.4025 20.0183L31.2585 18.8668L30.9476 19.1755L32.0916 20.3282ZM32.6495 16.0804L31.2845 14.2561L29.9834 15.2311L31.3484 17.0543L32.6495 16.0804ZM26.6901 13.8585L24.9893 15.5485L26.1354 16.7012L27.8352 15.0112L26.6901 13.8585ZM31.5196 19.7518C30.9454 19.1755 30.9454 19.1755 30.9454 19.1777H30.9433L30.94 19.182C30.8885 19.2339 30.8424 19.2909 30.8024 19.3521C30.7439 19.4388 30.68 19.5525 30.6259 19.6966C30.494 20.0685 30.4611 20.4684 30.5305 20.8568C30.6757 21.7939 31.3214 23.0322 32.9745 24.6767L34.1207 23.524C32.5726 21.9857 32.2043 21.0497 32.136 20.6077C32.1035 20.3975 32.1371 20.2935 32.1469 20.2697C32.1534 20.2552 32.1534 20.2531 32.1469 20.2632C32.1372 20.2781 32.1263 20.2923 32.1144 20.3054L32.1035 20.3163L32.0927 20.326L31.5196 19.7518ZM32.9745 24.6767C34.6288 26.3212 35.8735 26.9625 36.8117 27.1055C37.2916 27.1792 37.6784 27.1207 37.9719 27.0113C38.1364 26.9511 38.29 26.8648 38.4269 26.7556L38.4811 26.7068L38.4887 26.7003L38.4919 26.6971L38.493 26.6949C38.493 26.6949 38.4941 26.6938 37.921 26.1175C37.3469 25.5412 37.3501 25.5401 37.3501 25.5401L37.3523 25.5379L37.3544 25.5358L37.3609 25.5303L37.3718 25.5195L37.4129 25.487C37.423 25.4805 37.4205 25.4812 37.4054 25.4892C37.3783 25.4989 37.2721 25.5325 37.0587 25.5C36.6102 25.4307 35.6677 25.0623 34.1207 23.524L32.9745 24.6767ZM31.2845 14.255C30.1795 12.7817 28.0085 12.5477 26.6901 13.8585L27.8352 15.0112C28.4115 14.4381 29.4342 14.4977 29.9834 15.2311L31.2845 14.255ZM25.6274 17.8246C25.6057 17.4498 25.7779 17.0576 26.1354 16.7023L24.9882 15.5496C24.4064 16.1281 23.9482 16.9471 24.0034 17.9156L25.6274 17.8246ZM41.574 30.8896C41.2772 31.1864 40.9565 31.3533 40.6369 31.3825L40.7875 32.9999C41.5838 32.9252 42.2349 32.5243 42.7202 32.0423L41.574 30.8896ZM32.4025 20.0183C33.4696 18.9578 33.5487 17.2818 32.6506 16.0815L31.3495 17.0554C31.7861 17.6393 31.7211 18.4053 31.2574 18.8678L32.4025 20.0183ZM42.7159 27.1239C43.6009 27.6049 43.7385 28.7381 43.1134 29.3599L44.2596 30.5115C45.7113 29.0674 45.2639 26.6592 43.4904 25.6961L42.7159 27.1239ZM38.9881 26.2042C39.4041 25.7903 40.0736 25.6885 40.6456 25.9983L41.4213 24.5716C40.2469 23.9324 38.7909 24.109 37.8419 25.0515L38.9881 26.2042Z" fill="white"/>
<path d="M66.8594 25.334H69.0566C68.9863 26.1719 68.752 26.9189 68.3535 27.5752C67.9551 28.2256 67.3955 28.7383 66.6748 29.1133C65.9541 29.4883 65.0781 29.6758 64.0469 29.6758C63.2559 29.6758 62.5439 29.5352 61.9111 29.2539C61.2783 28.9668 60.7363 28.5625 60.2852 28.041C59.834 27.5137 59.4883 26.8779 59.248 26.1338C59.0137 25.3896 58.8965 24.5576 58.8965 23.6377V22.5742C58.8965 21.6543 59.0166 20.8223 59.2568 20.0781C59.5029 19.334 59.8545 18.6982 60.3115 18.1709C60.7686 17.6377 61.3164 17.2305 61.9551 16.9492C62.5996 16.668 63.3232 16.5273 64.126 16.5273C65.1455 16.5273 66.0068 16.7148 66.71 17.0898C67.4131 17.4648 67.958 17.9834 68.3447 18.6455C68.7373 19.3076 68.9775 20.0664 69.0654 20.9219H66.8682C66.8096 20.3711 66.6807 19.8994 66.4814 19.5068C66.2881 19.1143 66.001 18.8154 65.6201 18.6104C65.2393 18.3994 64.7412 18.2939 64.126 18.2939C63.6221 18.2939 63.1826 18.3877 62.8076 18.5752C62.4326 18.7627 62.1191 19.0381 61.8672 19.4014C61.6152 19.7646 61.4248 20.2129 61.2959 20.7461C61.1729 21.2734 61.1113 21.877 61.1113 22.5566V23.6377C61.1113 24.2822 61.167 24.8682 61.2783 25.3955C61.3955 25.917 61.5713 26.3652 61.8057 26.7402C62.0459 27.1152 62.3506 27.4053 62.7197 27.6104C63.0889 27.8154 63.5312 27.918 64.0469 27.918C64.6738 27.918 65.1807 27.8184 65.5674 27.6191C65.96 27.4199 66.2559 27.1299 66.4551 26.749C66.6602 26.3623 66.7949 25.8906 66.8594 25.334ZM70.4453 24.8506V24.6484C70.4453 23.9629 70.5449 23.3271 70.7441 22.7412C70.9434 22.1494 71.2305 21.6367 71.6055 21.2031C71.9863 20.7637 72.4492 20.4238 72.9941 20.1836C73.5449 19.9375 74.166 19.8145 74.8574 19.8145C75.5547 19.8145 76.1758 19.9375 76.7207 20.1836C77.2715 20.4238 77.7373 20.7637 78.1182 21.2031C78.499 21.6367 78.7891 22.1494 78.9883 22.7412C79.1875 23.3271 79.2871 23.9629 79.2871 24.6484V24.8506C79.2871 25.5361 79.1875 26.1719 78.9883 26.7578C78.7891 27.3438 78.499 27.8564 78.1182 28.2959C77.7373 28.7295 77.2744 29.0693 76.7295 29.3154C76.1846 29.5557 75.5664 29.6758 74.875 29.6758C74.1777 29.6758 73.5537 29.5557 73.0029 29.3154C72.458 29.0693 71.9951 28.7295 71.6143 28.2959C71.2334 27.8564 70.9434 27.3438 70.7441 26.7578C70.5449 26.1719 70.4453 25.5361 70.4453 24.8506ZM72.5635 24.6484V24.8506C72.5635 25.2783 72.6074 25.6826 72.6953 26.0635C72.7832 26.4443 72.9209 26.7783 73.1084 27.0654C73.2959 27.3525 73.5361 27.5781 73.8291 27.7422C74.1221 27.9062 74.4707 27.9883 74.875 27.9883C75.2676 27.9883 75.6074 27.9062 75.8945 27.7422C76.1875 27.5781 76.4277 27.3525 76.6152 27.0654C76.8027 26.7783 76.9404 26.4443 77.0283 26.0635C77.1221 25.6826 77.1689 25.2783 77.1689 24.8506V24.6484C77.1689 24.2266 77.1221 23.8281 77.0283 23.4531C76.9404 23.0723 76.7998 22.7354 76.6064 22.4424C76.4189 22.1494 76.1787 21.9209 75.8857 21.7568C75.5986 21.5869 75.2559 21.502 74.8574 21.502C74.459 21.502 74.1133 21.5869 73.8203 21.7568C73.5332 21.9209 73.2959 22.1494 73.1084 22.4424C72.9209 22.7354 72.7832 23.0723 72.6953 23.4531C72.6074 23.8281 72.5635 24.2266 72.5635 24.6484ZM83.1631 22.0205V29.5H81.0449V19.9902H83.04L83.1631 22.0205ZM82.7852 24.3936L82.0996 24.3848C82.1055 23.7109 82.1992 23.0928 82.3809 22.5303C82.5684 21.9678 82.8262 21.4844 83.1543 21.0801C83.4883 20.6758 83.8867 20.3652 84.3496 20.1484C84.8125 19.9258 85.3281 19.8145 85.8965 19.8145C86.3535 19.8145 86.7666 19.8789 87.1357 20.0078C87.5107 20.1309 87.8301 20.333 88.0938 20.6143C88.3633 20.8955 88.5684 21.2617 88.709 21.7129C88.8496 22.1582 88.9199 22.7061 88.9199 23.3564V29.5H86.793V23.3477C86.793 22.8906 86.7256 22.5303 86.5908 22.2666C86.4619 21.9971 86.2715 21.8066 86.0195 21.6953C85.7734 21.5781 85.4658 21.5195 85.0967 21.5195C84.7334 21.5195 84.4082 21.5957 84.1211 21.748C83.834 21.9004 83.5908 22.1084 83.3916 22.3721C83.1982 22.6357 83.0488 22.9404 82.9434 23.2861C82.8379 23.6318 82.7852 24.001 82.7852 24.3936ZM95.4414 19.9902V21.5371H90.0801V19.9902H95.4414ZM91.627 17.6611H93.7451V26.8721C93.7451 27.165 93.7861 27.3906 93.8682 27.5488C93.9561 27.7012 94.0762 27.8037 94.2285 27.8564C94.3809 27.9092 94.5596 27.9355 94.7646 27.9355C94.9111 27.9355 95.0518 27.9268 95.1865 27.9092C95.3213 27.8916 95.4297 27.874 95.5117 27.8564L95.5205 29.4736C95.3447 29.5264 95.1396 29.5732 94.9053 29.6143C94.6768 29.6553 94.4131 29.6758 94.1143 29.6758C93.6279 29.6758 93.1973 29.5908 92.8223 29.4209C92.4473 29.2451 92.1543 28.9609 91.9434 28.5684C91.7324 28.1758 91.627 27.6543 91.627 27.0039V17.6611ZM102.438 27.5928V23.0576C102.438 22.7178 102.376 22.4248 102.253 22.1787C102.13 21.9326 101.942 21.7422 101.69 21.6074C101.444 21.4727 101.134 21.4053 100.759 21.4053C100.413 21.4053 100.114 21.4639 99.8623 21.5811C99.6104 21.6982 99.4141 21.8564 99.2734 22.0557C99.1328 22.2549 99.0625 22.4805 99.0625 22.7324H96.9531C96.9531 22.3574 97.0439 21.9941 97.2256 21.6426C97.4072 21.291 97.6709 20.9775 98.0166 20.7021C98.3623 20.4268 98.7754 20.21 99.2559 20.0518C99.7363 19.8936 100.275 19.8145 100.873 19.8145C101.588 19.8145 102.221 19.9346 102.771 20.1748C103.328 20.415 103.765 20.7783 104.081 21.2646C104.403 21.7451 104.564 22.3486 104.564 23.0752V27.3027C104.564 27.7363 104.594 28.126 104.652 28.4717C104.717 28.8115 104.808 29.1074 104.925 29.3594V29.5H102.754C102.654 29.2715 102.575 28.9814 102.517 28.6299C102.464 28.2725 102.438 27.9268 102.438 27.5928ZM102.745 23.7168L102.763 25.0264H101.242C100.85 25.0264 100.504 25.0645 100.205 25.1406C99.9062 25.2109 99.6572 25.3164 99.458 25.457C99.2588 25.5977 99.1094 25.7676 99.0098 25.9668C98.9102 26.166 98.8604 26.3916 98.8604 26.6436C98.8604 26.8955 98.9189 27.127 99.0361 27.3379C99.1533 27.543 99.3232 27.7041 99.5459 27.8213C99.7744 27.9385 100.05 27.9971 100.372 27.9971C100.806 27.9971 101.184 27.9092 101.506 27.7334C101.834 27.5518 102.092 27.332 102.279 27.0742C102.467 26.8105 102.566 26.5615 102.578 26.3271L103.264 27.2676C103.193 27.5078 103.073 27.7656 102.903 28.041C102.733 28.3164 102.511 28.5801 102.235 28.832C101.966 29.0781 101.641 29.2803 101.26 29.4385C100.885 29.5967 100.451 29.6758 99.959 29.6758C99.3379 29.6758 98.7842 29.5527 98.2979 29.3066C97.8115 29.0547 97.4307 28.7178 97.1553 28.2959C96.8799 27.8682 96.7422 27.3848 96.7422 26.8457C96.7422 26.3418 96.8359 25.8965 97.0234 25.5098C97.2168 25.1172 97.498 24.7891 97.8672 24.5254C98.2422 24.2617 98.6992 24.0625 99.2383 23.9277C99.7773 23.7871 100.393 23.7168 101.084 23.7168H102.745ZM110.664 27.9883C111.01 27.9883 111.32 27.9209 111.596 27.7861C111.877 27.6455 112.103 27.4521 112.272 27.2061C112.448 26.96 112.545 26.6758 112.562 26.3535H114.558C114.546 26.9688 114.364 27.5283 114.013 28.0322C113.661 28.5361 113.195 28.9375 112.615 29.2363C112.035 29.5293 111.394 29.6758 110.69 29.6758C109.964 29.6758 109.331 29.5527 108.792 29.3066C108.253 29.0547 107.805 28.709 107.447 28.2695C107.09 27.8301 106.82 27.3232 106.639 26.749C106.463 26.1748 106.375 25.5596 106.375 24.9033V24.5957C106.375 23.9395 106.463 23.3242 106.639 22.75C106.82 22.1699 107.09 21.6602 107.447 21.2207C107.805 20.7812 108.253 20.4385 108.792 20.1924C109.331 19.9404 109.961 19.8145 110.682 19.8145C111.443 19.8145 112.111 19.9668 112.686 20.2715C113.26 20.5703 113.711 20.9893 114.039 21.5283C114.373 22.0615 114.546 22.6826 114.558 23.3916H112.562C112.545 23.04 112.457 22.7236 112.299 22.4424C112.146 22.1553 111.93 21.9268 111.648 21.7568C111.373 21.5869 111.042 21.502 110.655 21.502C110.228 21.502 109.873 21.5898 109.592 21.7656C109.311 21.9355 109.091 22.1699 108.933 22.4688C108.774 22.7617 108.66 23.0928 108.59 23.4619C108.525 23.8252 108.493 24.2031 108.493 24.5957V24.9033C108.493 25.2959 108.525 25.6768 108.59 26.0459C108.654 26.415 108.766 26.7461 108.924 27.0391C109.088 27.3262 109.311 27.5576 109.592 27.7334C109.873 27.9033 110.23 27.9883 110.664 27.9883ZM120.543 19.9902V21.5371H115.182V19.9902H120.543ZM116.729 17.6611H118.847V26.8721C118.847 27.165 118.888 27.3906 118.97 27.5488C119.058 27.7012 119.178 27.8037 119.33 27.8564C119.482 27.9092 119.661 27.9355 119.866 27.9355C120.013 27.9355 120.153 27.9268 120.288 27.9092C120.423 27.8916 120.531 27.874 120.613 27.8564L120.622 29.4736C120.446 29.5264 120.241 29.5732 120.007 29.6143C119.778 29.6553 119.515 29.6758 119.216 29.6758C118.729 29.6758 118.299 29.5908 117.924 29.4209C117.549 29.2451 117.256 28.9609 117.045 28.5684C116.834 28.1758 116.729 27.6543 116.729 27.0039V17.6611ZM134.052 16.7031H136.249V25.2549C136.249 26.2275 136.038 27.042 135.616 27.6982C135.194 28.3545 134.62 28.8496 133.894 29.1836C133.173 29.5117 132.367 29.6758 131.477 29.6758C130.557 29.6758 129.736 29.5117 129.016 29.1836C128.295 28.8496 127.727 28.3545 127.311 27.6982C126.9 27.042 126.695 26.2275 126.695 25.2549V16.7031H128.893V25.2549C128.893 25.8701 128.998 26.377 129.209 26.7754C129.42 27.168 129.719 27.458 130.105 27.6455C130.492 27.833 130.949 27.9268 131.477 27.9268C132.004 27.9268 132.458 27.833 132.839 27.6455C133.226 27.458 133.524 27.168 133.735 26.7754C133.946 26.377 134.052 25.8701 134.052 25.2549V16.7031ZM143.772 26.9248C143.772 26.7139 143.72 26.5234 143.614 26.3535C143.509 26.1777 143.307 26.0195 143.008 25.8789C142.715 25.7383 142.281 25.6094 141.707 25.4922C141.203 25.3809 140.74 25.249 140.318 25.0967C139.902 24.9385 139.545 24.748 139.246 24.5254C138.947 24.3027 138.716 24.0391 138.552 23.7344C138.388 23.4297 138.306 23.0781 138.306 22.6797C138.306 22.293 138.391 21.9268 138.561 21.5811C138.73 21.2354 138.974 20.9307 139.29 20.667C139.606 20.4033 139.99 20.1953 140.441 20.043C140.898 19.8906 141.408 19.8145 141.971 19.8145C142.768 19.8145 143.45 19.9492 144.019 20.2188C144.593 20.4824 145.032 20.8428 145.337 21.2998C145.642 21.751 145.794 22.2607 145.794 22.8291H143.676C143.676 22.5771 143.611 22.3428 143.482 22.126C143.359 21.9033 143.172 21.7246 142.92 21.5898C142.668 21.4492 142.352 21.3789 141.971 21.3789C141.607 21.3789 141.306 21.4375 141.065 21.5547C140.831 21.666 140.655 21.8125 140.538 21.9941C140.427 22.1758 140.371 22.375 140.371 22.5918C140.371 22.75 140.4 22.8936 140.459 23.0225C140.523 23.1455 140.629 23.2598 140.775 23.3652C140.922 23.4648 141.121 23.5586 141.373 23.6465C141.631 23.7344 141.953 23.8193 142.34 23.9014C143.066 24.0537 143.69 24.25 144.212 24.4902C144.739 24.7246 145.144 25.0293 145.425 25.4043C145.706 25.7734 145.847 26.2422 145.847 26.8105C145.847 27.2324 145.756 27.6191 145.574 27.9707C145.398 28.3164 145.141 28.6182 144.801 28.876C144.461 29.1279 144.054 29.3242 143.579 29.4648C143.11 29.6055 142.583 29.6758 141.997 29.6758C141.136 29.6758 140.406 29.5234 139.809 29.2188C139.211 28.9082 138.757 28.5127 138.446 28.0322C138.142 27.5459 137.989 27.042 137.989 26.5205H140.037C140.061 26.9131 140.169 27.2266 140.362 27.4609C140.562 27.6895 140.808 27.8564 141.101 27.9619C141.399 28.0615 141.707 28.1113 142.023 28.1113C142.404 28.1113 142.724 28.0615 142.981 27.9619C143.239 27.8564 143.436 27.7158 143.57 27.54C143.705 27.3584 143.772 27.1533 143.772 26.9248Z" fill="white"/>
</svg>
